<svg width="80" height="80" viewBox="0 0 80 80" fill="none" xmlns="http://www.w3.org/2000/svg">
<path d="M40 80C62.0914 80 80 62.0914 80 40C80 17.9086 62.0914 0 40 0C17.9086 0 0 17.9086 0 40C0 62.0914 17.9086 80 40 80Z" fill="#F1EEF8"/>
<path d="M40.0009 72.2079C57.7889 72.2079 72.2089 57.7879 72.2089 39.9999C72.2089 22.212 57.7889 7.79199 40.0009 7.79199C22.213 7.79199 7.79297 22.212 7.79297 39.9999C7.79297 57.7879 22.213 72.2079 40.0009 72.2079Z" fill="#6750A4"/>
<path d="M33.1245 55.7795L21.7734 41.1858L28.3745 36.0516L33.7485 42.9615L51.9038 23.7969L57.9752 29.5481L33.1245 55.7795Z" fill="white"/>
</svg>
