<svg width="24" height="36" viewBox="0 0 24 36" fill="none" xmlns="http://www.w3.org/2000/svg">
<rect width="24" height="24" rx="8" fill="#C22F30"/>
<g clip-path="url(#clip0_6038_9204)">
<path d="M18.3885 14.7267L17.6618 9.61999C17.4752 8.30666 16.3485 7.33333 15.0218 7.33333H8.98183C7.65517 7.33333 6.5285 8.30666 6.34183 9.61999L5.61517 14.7267C5.4685 15.7533 6.26183 16.6667 7.29517 16.6667C7.7485 16.6667 8.17517 16.4867 8.49517 16.1667L10.0018 14.6667H14.0018L15.5018 16.1667C15.8218 16.4867 16.2552 16.6667 16.7018 16.6667C17.7418 16.6667 18.5352 15.7533 18.3885 14.7267ZM11.3352 11.3333H10.0018V12.6667H9.33517V11.3333H8.00183V10.6667H9.33517V9.33333H10.0018V10.6667H11.3352V11.3333ZM14.0018 10.6667C13.6352 10.6667 13.3352 10.3667 13.3352 9.99999C13.3352 9.63333 13.6352 9.33333 14.0018 9.33333C14.3685 9.33333 14.6685 9.63333 14.6685 9.99999C14.6685 10.3667 14.3685 10.6667 14.0018 10.6667ZM15.3352 12.6667C14.9685 12.6667 14.6685 12.3667 14.6685 12C14.6685 11.6333 14.9685 11.3333 15.3352 11.3333C15.7018 11.3333 16.0018 11.6333 16.0018 12C16.0018 12.3667 15.7018 12.6667 15.3352 12.6667Z" fill="white"/>
</g>
<path d="M12.866 30.5C12.4811 31.1667 11.5189 31.1667 11.134 30.5L7.66987 24.5C7.28497 23.8333 7.7661 23 8.5359 23H15.4641C16.2339 23 16.715 23.8333 16.3301 24.5L12.866 30.5Z" fill="#C22F30"/>
<ellipse opacity="0.5" cx="12" cy="34" rx="12" ry="2" fill="#C22F30"/>
<defs>
<clipPath id="clip0_6038_9204">
<rect width="16" height="16" fill="white" transform="translate(4 4)"/>
</clipPath>
</defs>
</svg>
