<svg width="24" height="36" viewBox="0 0 24 36" fill="none" xmlns="http://www.w3.org/2000/svg">
<rect width="24" height="24" rx="8" fill="#FF7C02"/>
<g clip-path="url(#clip0_6038_9065)">
<path d="M9.4013 12.8933L11.288 11.0066L7.1613 6.88664C6.8413 6.56664 6.28797 6.6533 6.08797 7.06664C5.61464 8.05997 5.78797 9.27997 6.60797 10.1066L9.4013 12.8933ZM13.9213 11.6866C14.9413 12.16 16.3746 11.8266 17.4346 10.7666C18.708 9.4933 18.9546 7.66664 17.9746 6.68664C17.0013 5.7133 15.1746 5.95331 13.8946 7.22664C12.8346 8.28664 12.5013 9.71997 12.9746 10.74L6.93464 16.78C6.67464 17.04 6.67464 17.46 6.93464 17.72C7.19464 17.98 7.61464 17.98 7.87464 17.72L12.0013 13.6066L16.1213 17.7266C16.3813 17.9866 16.8013 17.9866 17.0613 17.7266C17.3213 17.4666 17.3213 17.0466 17.0613 16.7866L12.9413 12.6666L13.9213 11.6866Z" fill="white"/>
</g>
<path d="M12.866 30.5C12.4811 31.1667 11.5189 31.1667 11.134 30.5L7.66987 24.5C7.28497 23.8333 7.7661 23 8.5359 23H15.4641C16.2339 23 16.715 23.8333 16.3301 24.5L12.866 30.5Z" fill="#FF7C02"/>
<ellipse opacity="0.5" cx="12" cy="34" rx="12" ry="2" fill="#FF7C02"/>
<defs>
<clipPath id="clip0_6038_9065">
<rect width="16" height="16" fill="white" transform="translate(4 4)"/>
</clipPath>
</defs>
</svg>
