<svg width="24" height="36" viewBox="0 0 24 36" fill="none" xmlns="http://www.w3.org/2000/svg">
<rect width="24" height="24" rx="8" fill="#8FC22F"/>
<g clip-path="url(#clip0_6038_9080)">
<path d="M11.0013 12.6667H10.3346C9.7813 12.6667 9.33464 12.22 9.33464 11.6667C9.33464 11.1133 9.7813 10.6667 10.3346 10.6667H11.0013V10C11.0013 9.44667 11.448 9 12.0013 9C12.5546 9 13.0013 9.44667 13.0013 10V10.6667H13.668C14.2213 10.6667 14.668 11.1133 14.668 11.6667C14.668 12.22 14.2213 12.6667 13.668 12.6667H13.0013V13.3333C13.0013 13.8867 12.5546 14.3333 12.0013 14.3333C11.448 14.3333 11.0013 13.8867 11.0013 13.3333V12.6667ZM11.5346 5.50667L7.53464 7.00667C7.01464 7.20667 6.66797 7.7 6.66797 8.26V11.3933C6.66797 14.76 8.9413 17.9 12.0013 18.6667C15.0613 17.9 17.3346 14.76 17.3346 11.3933V8.26C17.3346 7.70667 16.988 7.20667 16.468 7.01334L12.468 5.51334C12.168 5.39334 11.8346 5.39334 11.5346 5.50667Z" fill="white"/>
</g>
<path d="M12.866 30.5C12.4811 31.1667 11.5189 31.1667 11.134 30.5L7.66987 24.5C7.28497 23.8333 7.7661 23 8.5359 23H15.4641C16.2339 23 16.715 23.8333 16.3301 24.5L12.866 30.5Z" fill="#8FC22F"/>
<ellipse opacity="0.5" cx="12" cy="34" rx="12" ry="2" fill="#8FC22F"/>
<defs>
<clipPath id="clip0_6038_9080">
<rect width="16" height="16" fill="white" transform="translate(4 4)"/>
</clipPath>
</defs>
</svg>
