<svg width="24" height="36" viewBox="0 0 24 36" fill="none" xmlns="http://www.w3.org/2000/svg">
<rect width="24" height="24" rx="8" fill="#28713D"/>
<g clip-path="url(#clip0_6038_9146)">
<path d="M16.6658 10.2V7.33333C16.6658 6.96666 16.3658 6.66666 15.9991 6.66666H15.3324C14.9658 6.66666 14.6658 6.96666 14.6658 7.33333V8.4L12.4458 6.4C12.1924 6.17333 11.8058 6.17333 11.5524 6.4L5.97909 11.42C5.75242 11.62 5.89242 12 6.19909 12H7.33242V16.6667C7.33242 17.0333 7.63242 17.3333 7.99909 17.3333H9.99909C10.3658 17.3333 10.6658 17.0333 10.6658 16.6667V13.3333H13.3324V16.6667C13.3324 17.0333 13.6324 17.3333 13.9991 17.3333H15.9991C16.3658 17.3333 16.6658 17.0333 16.6658 16.6667V12H17.7991C18.1058 12 18.2524 11.62 18.0191 11.42L16.6658 10.2ZM10.6658 10.6667C10.6658 9.93333 11.2658 9.33333 11.9991 9.33333C12.7324 9.33333 13.3324 9.93333 13.3324 10.6667H10.6658Z" fill="white"/>
</g>
<path d="M12.866 30.5C12.4811 31.1667 11.5189 31.1667 11.134 30.5L7.66987 24.5C7.28497 23.8333 7.7661 23 8.5359 23H15.4641C16.2339 23 16.715 23.8333 16.3301 24.5L12.866 30.5Z" fill="#28713D"/>
<ellipse opacity="0.5" cx="12" cy="34" rx="12" ry="2" fill="#28713D"/>
<defs>
<clipPath id="clip0_6038_9146">
<rect width="16" height="16" fill="white" transform="translate(4 4)"/>
</clipPath>
</defs>
</svg>
