<svg width="24" height="36" viewBox="0 0 24 36" fill="none" xmlns="http://www.w3.org/2000/svg">
<rect width="24" height="24" rx="8" fill="#6750A4"/>
<g clip-path="url(#clip0_5593_8426)">
<path d="M19.3546 8.33667C19.3533 8.32067 19.352 8.30467 19.3506 8.28867C19.3466 8.24534 19.3426 8.202 19.3366 8.15934C19.332 8.126 19.3253 8.09134 19.3193 8.05867L19.0066 7.27467L18.402 5.764C18.2073 5.27734 17.7373 4.95934 17.214 4.95934H6.78662C6.26329 4.95934 5.79329 5.278 5.59862 5.764L4.99396 7.27467L4.68129 8.05867C4.67462 8.09134 4.66862 8.126 4.66396 8.15934C4.65796 8.202 4.65396 8.24534 4.64996 8.28867C4.64862 8.30467 4.64729 8.32067 4.64596 8.33667C4.64262 8.38467 4.64062 8.43267 4.64062 8.48134V8.48267C4.64062 8.53134 4.64262 8.58 4.64596 8.62867L4.64929 8.66934C4.65262 8.71067 4.65729 8.75134 4.66262 8.792L4.66596 8.81534C4.67329 8.86267 4.68196 8.90934 4.69196 8.95534L4.69996 8.99067C4.70862 9.02867 4.71862 9.066 4.72929 9.10334L4.73729 9.13267C4.75129 9.178 4.76596 9.22267 4.78262 9.26667L4.79196 9.28934C4.80662 9.32734 4.82262 9.36467 4.83929 9.40134L4.85196 9.42934C4.87196 9.47267 4.89329 9.51534 4.91662 9.55667L4.91996 9.56334C4.94196 9.60267 4.96529 9.64134 4.98929 9.67934L5.00529 9.704C5.05729 9.784 5.11462 9.86 5.17662 9.93267L5.19396 9.95267C5.22262 9.986 5.25262 10.0187 5.28396 10.05L5.29196 10.058C5.32596 10.092 5.36062 10.1253 5.39662 10.1567L5.41396 10.1713C5.44596 10.1987 5.47796 10.2253 5.51129 10.2513L5.52862 10.2647C5.56662 10.2933 5.60596 10.3213 5.64596 10.348L5.65996 10.3567C5.69529 10.38 5.73196 10.402 5.76863 10.4233L5.79396 10.4373C5.83596 10.4607 5.87862 10.4833 5.92196 10.504C6.21596 10.644 6.54462 10.7227 6.89196 10.7227C7.38396 10.7227 7.83862 10.5653 8.20929 10.298C8.44196 10.13 8.74929 10.13 8.98196 10.298C9.35196 10.5653 9.80729 10.7227 10.2993 10.7227C10.7913 10.7227 11.246 10.5653 11.6166 10.298C11.8493 10.13 12.1566 10.13 12.3893 10.298C12.7593 10.5653 13.2146 10.7227 13.7066 10.7227C14.1986 10.7227 14.6533 10.5653 15.024 10.298C15.2566 10.13 15.564 10.13 15.7966 10.298C16.1666 10.5653 16.622 10.7227 17.114 10.7227C17.4613 10.7227 17.7906 10.644 18.084 10.504C18.1273 10.4833 18.17 10.4607 18.212 10.4373L18.2366 10.4233C18.2733 10.402 18.31 10.38 18.3453 10.3567L18.3593 10.348C18.3993 10.3213 18.4386 10.2933 18.4766 10.2647L18.494 10.2513C18.5273 10.2253 18.56 10.1987 18.5913 10.1713L18.6086 10.1567C18.6446 10.1247 18.68 10.092 18.714 10.0573L18.7213 10.0493C18.752 10.018 18.782 9.98534 18.8113 9.952L18.8286 9.932C18.8906 9.85933 18.9473 9.78334 19 9.70334L19.0153 9.67934C19.0393 9.64134 19.0626 9.60267 19.0846 9.56334L19.088 9.55734C19.1106 9.51534 19.132 9.47267 19.1526 9.43L19.1653 9.402C19.182 9.36467 19.198 9.32734 19.2126 9.28934L19.2213 9.26667C19.238 9.22267 19.2526 9.178 19.2666 9.13267L19.2726 9.11134C19.284 9.07067 19.2953 9.03 19.3046 8.98934L19.3126 8.956C19.3226 8.91 19.3313 8.86334 19.3386 8.816L19.3406 8.79867C19.3446 8.764 19.35 8.72934 19.3526 8.694C19.3546 8.67267 19.3566 8.65134 19.358 8.62934C19.3613 8.58067 19.3633 8.532 19.3633 8.48334V8.482C19.3633 8.43334 19.3613 8.38534 19.358 8.33734L19.3546 8.33667Z" fill="white"/>
<path d="M15.6906 11.352C15.5113 11.264 15.3026 11.264 15.1233 11.352C14.6866 11.5673 14.202 11.6827 13.7033 11.6827C13.2046 11.6827 12.72 11.5673 12.2833 11.352C12.104 11.264 11.8953 11.264 11.716 11.352C11.2793 11.5673 10.7946 11.6827 10.296 11.6827C9.79729 11.6827 9.31262 11.5673 8.87596 11.352C8.69662 11.264 8.48796 11.264 8.30862 11.352C7.87196 11.5673 7.38729 11.6827 6.88862 11.6827C6.55063 11.6827 6.22529 11.63 5.91862 11.5327V17.7293C5.91862 18.452 6.49329 19.04 7.19862 19.04H16.7986C17.504 19.04 18.0786 18.452 18.0786 17.7293V11.5327C17.7726 11.6293 17.4466 11.6827 17.1086 11.6827C16.61 11.6827 16.1253 11.5673 15.6886 11.352H15.6906ZM15.2 15.84C15.2 16.1935 14.9134 16.48 14.56 16.48H9.43996C9.0865 16.48 8.79996 16.1935 8.79996 15.84V13.92C8.79996 13.5665 9.0865 13.28 9.43996 13.28H14.56C14.9134 13.28 15.2 13.5665 15.2 13.92V15.84Z" fill="white"/>
</g>
<path d="M12.866 30.5C12.4811 31.1667 11.5189 31.1667 11.134 30.5L7.66987 24.5C7.28497 23.8333 7.7661 23 8.5359 23H15.4641C16.2339 23 16.715 23.8333 16.3301 24.5L12.866 30.5Z" fill="#6750A4"/>
<ellipse opacity="0.5" cx="12" cy="34" rx="12" ry="2" fill="#6750A4"/>
<defs>
<clipPath id="clip0_5593_8426">
<rect width="16" height="16" fill="white" transform="translate(4 4)"/>
</clipPath>
</defs>
</svg>
