<svg width="280" height="274" viewBox="0 0 280 274" fill="none" xmlns="http://www.w3.org/2000/svg">
<g clip-path="url(#clip0_6555_31858)">
<path d="M177.756 61.5113H102.309C100.589 61.5134 98.9409 62.1978 97.7252 63.4144C96.5094 64.631 95.8255 66.2805 95.8234 68.001V235.803L94.9587 236.067L76.4502 241.739C75.573 242.007 74.6256 241.915 73.8158 241.485C73.0061 241.054 72.4002 240.319 72.1312 239.442L17.0767 59.4822C16.8088 58.6044 16.9001 57.656 17.3306 56.8456C17.7611 56.0351 18.4955 55.4288 19.3725 55.16L47.8941 46.4205L130.579 21.0933L159.101 12.3538C159.535 12.2202 159.991 12.1735 160.443 12.2164C160.895 12.2593 161.334 12.391 161.736 12.604C162.137 12.817 162.492 13.1071 162.781 13.4576C163.07 13.8081 163.287 14.2123 163.42 14.6469L177.493 60.646L177.756 61.5113Z" fill="#F1EEF8"/>
<path d="M194.221 60.6458L177.26 5.2063C176.978 4.28258 176.516 3.42355 175.902 2.6783C175.288 1.93306 174.533 1.3162 173.681 0.862987C172.829 0.40977 171.895 0.12907 170.934 0.0369387C169.974 -0.0551931 169.004 0.0430484 168.081 0.326039L127.981 12.6089L45.3006 37.9404L5.20092 50.2276C3.33811 50.8 1.77834 52.0887 0.863999 53.8107C-0.0503424 55.5328 -0.244561 57.5475 0.323982 59.4127L58.2924 248.882C58.7542 250.388 59.6861 251.706 60.9514 252.642C62.2166 253.579 63.7485 254.085 65.3224 254.087C66.0508 254.087 66.7751 253.978 67.471 253.762L94.9593 245.343L95.824 245.075V244.171L94.9593 244.434L67.216 252.936C65.5717 253.438 63.7957 253.266 62.2777 252.459C60.7596 251.652 59.6234 250.275 59.1182 248.631L1.15425 59.1575C0.903968 58.3428 0.816736 57.4866 0.897552 56.6381C0.978367 55.7896 1.22564 54.9654 1.62521 54.2127C2.02479 53.46 2.56883 52.7935 3.22616 52.2515C3.88349 51.7095 4.64121 51.3025 5.45593 51.054L45.5556 38.7668L128.237 13.4396L168.336 1.1524C168.954 0.963683 169.597 0.867458 170.243 0.866856C171.629 0.869971 172.979 1.31731 174.093 2.14335C175.207 2.96939 176.027 4.13072 176.434 5.45725L193.317 60.6458L193.585 61.5111H194.484L194.221 60.6458Z" fill="#3F3D56"/>
<path d="M53.0404 55.3014C52.2072 55.3008 51.396 55.033 50.7259 54.5373C50.0559 54.0415 49.5622 53.3439 49.3174 52.5469L43.7487 34.3446C43.599 33.8557 43.5471 33.342 43.5959 32.833C43.6446 32.324 43.7931 31.8295 44.0328 31.3779C44.2726 30.9264 44.5989 30.5264 44.9931 30.2011C45.3873 29.8757 45.8417 29.6312 46.3303 29.4816L122.396 6.17752C123.383 5.87619 124.449 5.97896 125.36 6.46327C126.271 6.94757 126.953 7.77384 127.256 8.76073L132.825 26.9632C133.125 27.9507 133.023 29.0173 132.539 29.929C132.055 30.8407 131.229 31.5231 130.243 31.8265L54.1772 55.1305C53.8089 55.2436 53.4258 55.3012 53.0404 55.3014Z" fill="#6750A4"/>
<path d="M82.2093 19.4495C86.9848 19.4495 90.8562 15.5754 90.8562 10.7965C90.8562 6.01761 86.9848 2.14355 82.2093 2.14355C77.4338 2.14355 73.5625 6.01761 73.5625 10.7965C73.5625 15.5754 77.4338 19.4495 82.2093 19.4495Z" fill="#6750A4"/>
<path d="M82.2098 16.2758C85.2338 16.2758 87.6853 13.8226 87.6853 10.7965C87.6853 7.77031 85.2338 5.31714 82.2098 5.31714C79.1858 5.31714 76.7344 7.77031 76.7344 10.7965C76.7344 13.8226 79.1858 16.2758 82.2098 16.2758Z" fill="white"/>
<path d="M260.545 251.876H114.413C113.439 251.875 112.505 251.487 111.816 250.798C111.127 250.108 110.739 249.174 110.738 248.199V72.9763C110.739 72.0013 111.127 71.0666 111.816 70.3771C112.505 69.6877 113.439 69.2999 114.413 69.2988H260.545C261.519 69.3 262.453 69.6878 263.142 70.3772C263.831 71.0666 264.218 72.0013 264.219 72.9763V248.199C264.218 249.174 263.831 250.108 263.142 250.798C262.453 251.487 261.519 251.875 260.545 251.876Z" fill="#F1EEF8"/>
<path d="M193.315 60.646H102.307C100.358 60.6488 98.4905 61.4245 97.1128 62.8033C95.735 64.182 94.9598 66.0512 94.957 68.001V244.435L95.8217 244.171V68.001C95.8238 66.2805 96.5077 64.631 97.7235 63.4144C98.9392 62.1978 100.588 61.5134 102.307 61.5113H193.583L193.315 60.646ZM272.649 60.646H102.307C100.358 60.6488 98.4905 61.4245 97.1128 62.8033C95.735 64.182 94.9598 66.0512 94.957 68.001V266.154C94.9598 268.103 95.735 269.973 97.1128 271.351C98.4905 272.73 100.358 273.506 102.307 273.509H272.649C274.598 273.506 276.466 272.73 277.843 271.351C279.221 269.973 279.996 268.103 279.999 266.154V68.001C279.996 66.0512 279.221 64.182 277.843 62.8033C276.466 61.4245 274.598 60.6488 272.649 60.646ZM279.134 266.154C279.132 267.874 278.448 269.524 277.233 270.74C276.017 271.957 274.369 272.641 272.649 272.643H102.307C100.588 272.641 98.9392 271.957 97.7235 270.74C96.5077 269.524 95.8238 267.874 95.8217 266.154V68.001C95.8238 66.2805 96.5077 64.631 97.7235 63.4144C98.9392 62.1978 100.588 61.5134 102.307 61.5113H272.649C274.369 61.5134 276.017 62.1978 277.233 63.4144C278.448 64.631 279.132 66.2805 279.134 68.001V266.154Z" fill="#3F3D56"/>
<path d="M227.254 79.6823H147.704C146.672 79.6811 145.683 79.2705 144.953 78.5405C144.224 77.8106 143.814 76.8208 143.812 75.7885V56.752C143.814 55.7196 144.224 54.7299 144.953 53.9999C145.683 53.2699 146.672 52.8593 147.704 52.8582H227.254C228.286 52.8593 229.275 53.2699 230.005 53.9999C230.734 54.7299 231.144 55.7196 231.145 56.752V75.7885C231.144 76.8208 230.734 77.8106 230.005 78.5405C229.275 79.2705 228.286 79.6811 227.254 79.6823Z" fill="#6750A4"/>
<path d="M187.479 54.1562C192.254 54.1562 196.126 50.2822 196.126 45.5033C196.126 40.7244 192.254 36.8503 187.479 36.8503C182.703 36.8503 178.832 40.7244 178.832 45.5033C178.832 50.2822 182.703 54.1562 187.479 54.1562Z" fill="#6750A4"/>
<path d="M187.478 50.7736C190.386 50.7736 192.744 48.4139 192.744 45.5031C192.744 42.5923 190.386 40.2327 187.478 40.2327C184.569 40.2327 182.211 42.5923 182.211 45.5031C182.211 48.4139 184.569 50.7736 187.478 50.7736Z" fill="white"/>
</g>
<defs>
<clipPath id="clip0_6555_31858">
<rect width="280" height="273.509" fill="white"/>
</clipPath>
</defs>
</svg>
