<svg width="24" height="36" viewBox="0 0 24 36" fill="none" xmlns="http://www.w3.org/2000/svg">
<rect width="24" height="24" rx="8" fill="#49454F"/>
<g clip-path="url(#clip0_6038_9240)">
<path d="M8.66797 16C7.93464 16 7.3413 16.6 7.3413 17.3333C7.3413 18.0667 7.93464 18.6667 8.66797 18.6667C9.4013 18.6667 10.0013 18.0667 10.0013 17.3333C10.0013 16.6 9.4013 16 8.66797 16ZM5.33464 6.66666H6.0013L8.4013 11.7267L7.5013 13.3533C7.01464 14.2467 7.65464 15.3333 8.66797 15.3333H16.0013C16.368 15.3333 16.668 15.0333 16.668 14.6667C16.668 14.3 16.368 14 16.0013 14H8.66797L9.4013 12.6667H14.368C14.868 12.6667 15.308 12.3933 15.5346 11.98L17.9213 7.65333C18.168 7.21333 17.848 6.66666 17.3413 6.66666H7.47464L7.02797 5.71333C6.9213 5.47999 6.6813 5.33333 6.42797 5.33333H5.33464C4.96797 5.33333 4.66797 5.63333 4.66797 5.99999C4.66797 6.36666 4.96797 6.66666 5.33464 6.66666ZM15.3346 16C14.6013 16 14.008 16.6 14.008 17.3333C14.008 18.0667 14.6013 18.6667 15.3346 18.6667C16.068 18.6667 16.668 18.0667 16.668 17.3333C16.668 16.6 16.068 16 15.3346 16Z" fill="white"/>
</g>
<path d="M12.866 30.5C12.4811 31.1667 11.5189 31.1667 11.134 30.5L7.66987 24.5C7.28497 23.8333 7.7661 23 8.5359 23H15.4641C16.2339 23 16.715 23.8333 16.3301 24.5L12.866 30.5Z" fill="#49454F"/>
<ellipse opacity="0.5" cx="12" cy="34" rx="12" ry="2" fill="#49454F"/>
<defs>
<clipPath id="clip0_6038_9240">
<rect width="16" height="16" fill="white" transform="translate(4 4)"/>
</clipPath>
</defs>
</svg>
