<svg width="24" height="36" viewBox="0 0 24 36" fill="none" xmlns="http://www.w3.org/2000/svg">
<rect width="24" height="24" rx="8" fill="#6750A4"/>
<g clip-path="url(#clip0_6038_9035)">
<path d="M18.6011 9.26L17.9011 7.01333C17.7544 6.41333 17.2344 6 16.6278 6H7.36777C6.76778 6 6.24111 6.42 6.10111 7.01333L5.40111 9.26C5.09444 10.5733 5.96777 11.3333 6.00111 11.3733V16.6667C6.00111 17.4 6.60111 18 7.33444 18H16.6678C17.4011 18 18.0011 17.4 18.0011 16.6667V11.3733C18.7478 10.6267 18.7278 9.76667 18.6011 9.26ZM12.6678 7.33333H13.9744L14.3344 9.68C14.3944 10.1533 14.0744 10.6667 13.4811 10.6667C13.0344 10.6667 12.6678 10.2733 12.6678 9.79333V7.33333ZM8.29444 9.90667C8.24111 10.34 7.89444 10.6667 7.48777 10.6667C6.86777 10.6667 6.58777 10.02 6.69444 9.57333L7.36777 7.33333H8.68111L8.29444 9.90667ZM11.3344 9.79333C11.3344 10.2733 10.9678 10.6667 10.4744 10.6667C9.97444 10.6667 9.60777 10.2 9.66111 9.68L10.0278 7.33333H11.3344V9.79333ZM16.5144 10.6667C16.1078 10.6667 15.7544 10.34 15.7078 9.90667L15.3211 7.33333L16.6078 7.32667L17.3078 9.57333C17.4144 10.02 17.1411 10.6667 16.5144 10.6667Z" fill="white"/>
</g>
<path d="M12.866 30.5C12.4811 31.1667 11.5189 31.1667 11.134 30.5L7.66987 24.5C7.28497 23.8333 7.7661 23 8.5359 23H15.4641C16.2339 23 16.715 23.8333 16.3301 24.5L12.866 30.5Z" fill="#6750A4"/>
<ellipse opacity="0.5" cx="12" cy="34" rx="12" ry="2" fill="#6750A4"/>
<defs>
<clipPath id="clip0_6038_9035">
<rect width="16" height="16" fill="white" transform="translate(4 4)"/>
</clipPath>
</defs>
</svg>
