<svg width="24" height="36" viewBox="0 0 24 36" fill="none" xmlns="http://www.w3.org/2000/svg">
<rect width="24" height="24" rx="8" fill="#001180"/>
<g clip-path="url(#clip0_6038_9186)">
<path d="M13.4483 13.14L14.3816 11.5267C14.4416 11.4267 14.415 11.3 14.3283 11.2267L13.3416 10.4533C13.3616 10.3067 13.375 10.1533 13.375 9.99999C13.375 9.84666 13.3616 9.69333 13.3416 9.53999L14.3283 8.76666C14.415 8.69333 14.4416 8.56666 14.3816 8.46666L13.4483 6.85333C13.3883 6.75333 13.2683 6.71333 13.1616 6.75333L12.0016 7.21999C11.7616 7.03333 11.5016 6.87999 11.215 6.75999L11.0416 5.52666C11.0216 5.41999 10.9216 5.33333 10.8083 5.33333H8.94163C8.8283 5.33333 8.7283 5.41999 8.7083 5.53333L8.53496 6.76666C8.25496 6.88666 7.9883 7.03999 7.7483 7.22666L6.5883 6.75999C6.48163 6.71999 6.36163 6.75999 6.30163 6.85999L5.3683 8.47333C5.3083 8.57333 5.33496 8.69999 5.42163 8.77333L6.4083 9.54666C6.3883 9.69333 6.37496 9.84666 6.37496 9.99999C6.37496 10.1533 6.3883 10.3067 6.4083 10.46L5.42163 11.2333C5.33496 11.3067 5.3083 11.4333 5.3683 11.5333L6.30163 13.1467C6.36163 13.2467 6.48163 13.2867 6.5883 13.2467L7.7483 12.78C7.9883 12.9667 8.2483 13.12 8.53496 13.24L8.7083 14.4733C8.7283 14.58 8.8283 14.6667 8.94163 14.6667H10.8083C10.9216 14.6667 11.0216 14.58 11.0416 14.4667L11.215 13.2333C11.495 13.1133 11.7616 12.96 12.0016 12.7733L13.1616 13.24C13.2683 13.28 13.3883 13.24 13.4483 13.14ZM9.87496 11.3333C9.14163 11.3333 8.54163 10.7333 8.54163 9.99999C8.54163 9.26666 9.14163 8.66666 9.87496 8.66666C10.6083 8.66666 11.2083 9.26666 11.2083 9.99999C11.2083 10.7333 10.6083 11.3333 9.87496 11.3333Z" fill="white"/>
<path d="M18.6154 16.4467L17.9754 15.9533C17.9888 15.86 18.0021 15.76 18.0021 15.66C18.0021 15.56 17.9954 15.46 17.9754 15.3667L18.6088 14.8733C18.6621 14.8267 18.6821 14.7467 18.6421 14.68L18.0421 13.6467C18.0088 13.58 17.9288 13.56 17.8554 13.58L17.1154 13.88C16.9621 13.76 16.7954 13.66 16.6088 13.5867L16.4954 12.8C16.4888 12.72 16.4221 12.6667 16.3554 12.6667H15.1621C15.0888 12.6667 15.0221 12.72 15.0154 12.7933L14.9021 13.58C14.7221 13.66 14.5488 13.7533 14.3954 13.8733L13.6554 13.5733C13.5888 13.5467 13.5088 13.5733 13.4688 13.64L12.8688 14.6733C12.8354 14.74 12.8421 14.82 12.9021 14.8667L13.5354 15.36C13.5221 15.4533 13.5154 15.5533 13.5154 15.6533C13.5154 15.7533 13.5221 15.8533 13.5354 15.9467L12.9021 16.44C12.8488 16.4867 12.8288 16.5667 12.8688 16.6333L13.4688 17.6667C13.5021 17.7333 13.5821 17.7533 13.6554 17.7333L14.3954 17.4333C14.5488 17.5533 14.7154 17.6533 14.9021 17.7267L15.0154 18.5133C15.0288 18.5867 15.0888 18.64 15.1621 18.64H16.3554C16.4288 18.64 16.4954 18.5867 16.5021 18.5133L16.6154 17.7267C16.7954 17.6467 16.9688 17.5533 17.1154 17.4333L17.8621 17.7333C17.9288 17.76 18.0088 17.7333 18.0488 17.6667L18.6488 16.6333C18.6888 16.5733 18.6688 16.4933 18.6154 16.4467ZM15.7554 16.5533C15.2621 16.5533 14.8554 16.1533 14.8554 15.6533C14.8554 15.1533 15.2554 14.7533 15.7554 14.7533C16.2554 14.7533 16.6554 15.1533 16.6554 15.6533C16.6554 16.1533 16.2488 16.5533 15.7554 16.5533Z" fill="white"/>
</g>
<path d="M12.866 30.5C12.4811 31.1667 11.5189 31.1667 11.134 30.5L7.66987 24.5C7.28497 23.8333 7.7661 23 8.5359 23H15.4641C16.2339 23 16.715 23.8333 16.3301 24.5L12.866 30.5Z" fill="#001180"/>
<ellipse opacity="0.5" cx="12" cy="34" rx="12" ry="2" fill="#001180"/>
<defs>
<clipPath id="clip0_6038_9186">
<rect width="16" height="16" fill="white" transform="translate(4 4)"/>
</clipPath>
</defs>
</svg>
