<svg width="24" height="36" viewBox="0 0 24 36" fill="none" xmlns="http://www.w3.org/2000/svg">
<rect width="24" height="24" rx="8" fill="#FFB818"/>
<g clip-path="url(#clip0_6038_9222)">
<path d="M11.992 5.33333C8.31203 5.33333 5.33203 8.32 5.33203 12C5.33203 15.68 8.31203 18.6667 11.992 18.6667C15.6787 18.6667 18.6654 15.68 18.6654 12C18.6654 8.32 15.6787 5.33333 11.992 5.33333ZM14.1454 15.5933L11.9987 14.3L9.85203 15.5933C9.5987 15.7467 9.28536 15.52 9.35203 15.2333L9.9187 12.7933L8.03203 11.16C7.81203 10.9667 7.93203 10.6 8.22536 10.5733L10.7187 10.36L11.692 8.06C11.8054 7.78667 12.192 7.78667 12.3054 8.06L13.2787 10.3533L15.772 10.5667C16.0654 10.5933 16.1854 10.96 15.9587 11.1533L14.072 12.7867L14.6387 15.2333C14.7054 15.52 14.3987 15.7467 14.1454 15.5933Z" fill="white"/>
</g>
<path d="M12.866 30.5C12.4811 31.1667 11.5189 31.1667 11.134 30.5L7.66987 24.5C7.28497 23.8333 7.7661 23 8.5359 23H15.4641C16.2339 23 16.715 23.8333 16.3301 24.5L12.866 30.5Z" fill="#FFB818"/>
<ellipse opacity="0.5" cx="12" cy="34" rx="12" ry="2" fill="#FFB818"/>
<defs>
<clipPath id="clip0_6038_9222">
<rect width="16" height="16" fill="white" transform="translate(4 4)"/>
</clipPath>
</defs>
</svg>
