<svg width="24" height="36" viewBox="0 0 24 36" fill="none" xmlns="http://www.w3.org/2000/svg">
<rect width="24" height="24" rx="8" fill="#2B65C6"/>
<g clip-path="url(#clip0_6038_9050)">
<path d="M6.66667 8.66667C6.66667 8.3 6.96667 8 7.33333 8H18C18.3667 8 18.6667 7.7 18.6667 7.33333C18.6667 6.96667 18.3667 6.66667 18 6.66667H6.66667C5.93333 6.66667 5.33333 7.26667 5.33333 8V15.3333H5C4.44667 15.3333 4 15.78 4 16.3333C4 16.8867 4.44667 17.3333 5 17.3333H13.3333V15.3333H6.66667V8.66667ZM19.3333 9.33333H15.3333C14.9667 9.33333 14.6667 9.63333 14.6667 10V16.6667C14.6667 17.0333 14.9667 17.3333 15.3333 17.3333H19.3333C19.7 17.3333 20 17.0333 20 16.6667V10C20 9.63333 19.7 9.33333 19.3333 9.33333ZM18.6667 15.3333H16V10.6667H18.6667V15.3333Z" fill="white"/>
</g>
<path d="M12.866 30.5C12.4811 31.1667 11.5189 31.1667 11.134 30.5L7.66987 24.5C7.28497 23.8333 7.7661 23 8.5359 23H15.4641C16.2339 23 16.715 23.8333 16.3301 24.5L12.866 30.5Z" fill="#2B65C6"/>
<ellipse opacity="0.5" cx="12" cy="34" rx="12" ry="2" fill="#2B65C6"/>
<defs>
<clipPath id="clip0_6038_9050">
<rect width="16" height="16" fill="white" transform="translate(4 4)"/>
</clipPath>
</defs>
</svg>
